<svg width="694" height="487" viewBox="0 0 694 487" fill="none" xmlns="http://www.w3.org/2000/svg">
<g filter="url(#filter0_iiii_1_167)">
<path d="M283.375 22.922C239.924 41.8463 266.327 97.8288 230.266 124.249C183.085 158.816 94.3587 147.65 57.5814 188.348C20.254 229.655 26.5649 284.514 45.4605 328.758C65.8974 376.611 105.235 422.115 166.307 442.928C226.66 463.497 301.958 456.476 368.56 438.87C427.576 423.27 463.993 380.695 513.642 351.114C561.641 322.515 631.223 309.202 655.562 267.872C679.943 226.471 664.307 178.461 637.064 141.531C612.969 108.867 559.716 97.985 516.397 79.217C483.297 64.8764 450.132 53.4712 413.239 44.5584C370.482 34.229 324.825 4.86908 283.375 22.922Z" fill="#2AB1AD"/>
</g>
<defs>
<filter id="filter0_iiii_1_167" x="0" y="-30" width="693.672" height="532.931" filterUnits="userSpaceOnUse" color-interpolation-filters="sRGB">
<feFlood flood-opacity="0" result="BackgroundImageFix"/>
<feBlend mode="normal" in="SourceGraphic" in2="BackgroundImageFix" result="shape"/>
<feColorMatrix in="SourceAlpha" type="matrix" values="0 0 0 0 0 0 0 0 0 0 0 0 0 0 0 0 0 0 127 0" result="hardAlpha"/>
<feOffset dy="16"/>
<feGaussianBlur stdDeviation="16"/>
<feComposite in2="hardAlpha" operator="arithmetic" k2="-1" k3="1"/>
<feColorMatrix type="matrix" values="0 0 0 0 0 0 0 0 0 0 0 0 0 0 0 0 0 0 0.16 0"/>
<feBlend mode="normal" in2="shape" result="effect1_innerShadow_1_167"/>
<feColorMatrix in="SourceAlpha" type="matrix" values="0 0 0 0 0 0 0 0 0 0 0 0 0 0 0 0 0 0 127 0" result="hardAlpha"/>
<feOffset dy="8"/>
<feGaussianBlur stdDeviation="8"/>
<feComposite in2="hardAlpha" operator="arithmetic" k2="-1" k3="1"/>
<feColorMatrix type="matrix" values="0 0 0 0 0 0 0 0 0 0 0 0 0 0 0 0 0 0 0.12 0"/>
<feBlend mode="normal" in2="effect1_innerShadow_1_167" result="effect2_innerShadow_1_167"/>
<feColorMatrix in="SourceAlpha" type="matrix" values="0 0 0 0 0 0 0 0 0 0 0 0 0 0 0 0 0 0 127 0" result="hardAlpha"/>
<feOffset dy="4"/>
<feGaussianBlur stdDeviation="4"/>
<feComposite in2="hardAlpha" operator="arithmetic" k2="-1" k3="1"/>
<feColorMatrix type="matrix" values="0 0 0 0 0 0 0 0 0 0 0 0 0 0 0 0 0 0 0.12 0"/>
<feBlend mode="normal" in2="effect2_innerShadow_1_167" result="effect3_innerShadow_1_167"/>
<feColorMatrix in="SourceAlpha" type="matrix" values="0 0 0 0 0 0 0 0 0 0 0 0 0 0 0 0 0 0 127 0" result="hardAlpha"/>
<feOffset dy="2"/>
<feGaussianBlur stdDeviation="2"/>
<feComposite in2="hardAlpha" operator="arithmetic" k2="-1" k3="1"/>
<feColorMatrix type="matrix" values="0 0 0 0 0 0 0 0 0 0 0 0 0 0 0 0 0 0 0.12 0"/>
<feBlend mode="normal" in2="effect3_innerShadow_1_167" result="effect4_innerShadow_1_167"/>
</filter>
</defs>
</svg>
